<svg xmlns="http://www.w3.org/2000/svg" xmlns:xlink="http://www.w3.org/1999/xlink" viewBox="0 0 66.97 77.05"><defs><style>.cls-1{fill:url(#linear-gradient);}.cls-2{fill:#09804c;}.cls-3{fill:url(#linear-gradient-2);}.cls-4{fill:url(#linear-gradient-3);}.cls-5{fill:url(#linear-gradient-4);}.cls-6{fill:#fff;}</style><linearGradient id="linear-gradient" x1="38.44" y1="23.94" x2="47.12" y2="5.82" gradientUnits="userSpaceOnUse"><stop offset="0" stop-color="#116149"/><stop offset="0.37" stop-color="#13aa52"/><stop offset="0.65" stop-color="#0ad05b"/><stop offset="0.93" stop-color="#69d997"/><stop offset="1" stop-color="#83dba7"/></linearGradient><linearGradient id="linear-gradient-2" x1="30.97" y1="24.58" x2="18.21" y2="4.8" xlink:href="#linear-gradient"/><linearGradient id="linear-gradient-3" x1="35.2" y1="29.88" x2="51.12" y2="16.29" xlink:href="#linear-gradient"/><linearGradient id="linear-gradient-4" x1="33.43" y1="30.39" x2="16.18" y2="16.54" xlink:href="#linear-gradient"/></defs><g id="Layer_1" data-name="Layer 1"><path class="cls-1" d="M39,19.05a17,17,0,0,1,10.35-2.87c0-.22,0-.45,0-.67A15.54,15.54,0,0,0,47.07,7.4a14.32,14.32,0,0,0-6.86,2.41,15,15,0,0,0-5.33,6.63v6.62A16.51,16.51,0,0,1,39,19.05Z"/><path class="cls-2" d="M34.88,12A16.4,16.4,0,0,1,45.6,5.38,15.57,15.57,0,0,0,34.88,0Z"/><path class="cls-3" d="M28.62,19.05a16.29,16.29,0,0,1,4.09,4V16.44a14.93,14.93,0,0,0-5.32-6.63A14.36,14.36,0,0,0,20.53,7.4a15.44,15.44,0,0,0-2.28,8.11c0,.22,0,.45,0,.67A17,17,0,0,1,28.62,19.05Z"/><path class="cls-4" d="M40.21,20.84a15,15,0,0,0-5.33,6.63V31a15.54,15.54,0,0,0,14.2-12.65A14.91,14.91,0,0,0,40.21,20.84Z"/><path class="cls-5" d="M32.71,27.47a14.93,14.93,0,0,0-5.32-6.63,14.91,14.91,0,0,0-8.87-2.48A15.53,15.53,0,0,0,32.71,31Z"/><path class="cls-2" d="M28.62,8a16.29,16.29,0,0,1,4.09,4V0A15.55,15.55,0,0,0,22,5.38,16.38,16.38,0,0,1,28.62,8Z"/><path class="cls-6" d="M56.35,74.39a.84.84,0,1,1,.83-.85.83.83,0,0,1-.83.85m0-1.6a.77.77,0,1,0,.76.77.76.76,0,0,0-.76-.77m.2,1.29-.21-.46h-.18v.46H56V73h.31c.23,0,.33.1.33.29a.25.25,0,0,1-.21.28l.22.48Zm-.39-.57h.19c.14,0,.2-.05.2-.19s0-.18-.22-.18h-.17Z"/><path class="cls-6" d="M43.88,73.63a1.94,1.94,0,0,0,1.08.25,2.07,2.07,0,0,0,1.52-.54,2.87,2.87,0,0,0,.85-2.28,2.71,2.71,0,0,0-1.25-2.46,3.32,3.32,0,0,0-1.79-.42,1.61,1.61,0,0,0-.53.06.34.34,0,0,0-.09.15c0,.2,0,1.66,0,2.52s0,2.12,0,2.27a.65.65,0,0,0,.21.45M41.73,67.7l1.2,0c.61,0,1,0,2.16,0a3.49,3.49,0,0,1,2.32.75,3.1,3.1,0,0,1,1.06,2.44,3.17,3.17,0,0,1-1.32,2.74,4.37,4.37,0,0,1-2.73.77l-2.68,0h0c0-.08.08-.41.16-.42a1.27,1.27,0,0,0,.43-.09c.2-.08.25-.18.27-.53,0-.66,0-1.45,0-2.35,0-.64,0-1.88,0-2.28s-.17-.41-.45-.48l-.61-.09c0-.07.15-.36.2-.42"/><path class="cls-6" d="M51.14,68.24s-.1.12-.1.17c0,.39,0,1.39,0,2.08a.06.06,0,0,0,.06.05,7.51,7.51,0,0,0,.77,0,1.93,1.93,0,0,0,.78-.12,1,1,0,0,0,.51-1c0-.93-.65-1.28-1.61-1.28a3,3,0,0,0-.39,0m2.45,4.27c0-.94-.69-1.47-2-1.47a3.42,3.42,0,0,0-.55,0s-.07,0-.07,0c0,.67,0,1.75,0,2.17a.77.77,0,0,0,.32.52,2.29,2.29,0,0,0,.83.11,1.29,1.29,0,0,0,1.4-1.39m-4.4-4.79c.1,0,.39,0,1.12,0l1.92,0c.83,0,2,.3,2,1.54a1.5,1.5,0,0,1-1,1.33s0,0,0,0a1.71,1.71,0,0,1,1.5,1.63,2,2,0,0,1-1.4,1.86,4.54,4.54,0,0,1-1.77.3c-.49,0-1.79-.06-2.51-.05-.07,0,.07-.37.14-.42a2.09,2.09,0,0,0,.48-.08c.26-.06.29-.15.33-.53s0-1.51,0-2.36c0-1.15,0-1.93,0-2.31s-.12-.4-.33-.45L49,68.14c-.06-.06.11-.38.16-.42"/><path class="cls-6" d="M10.52,74.39a.45.45,0,0,1,0-.21.3.3,0,0,1,0-.15l.41-.08c.19,0,.26-.15.27-.4,0-.57,0-1.65,0-2.41v0a.31.31,0,0,0-.1-.27,2.1,2.1,0,0,0-.58-.25c-.09,0-.14-.08-.13-.13s.06-.12.17-.15A6.66,6.66,0,0,0,12.05,70a.3.3,0,0,1,0,.15s0,.07,0,.11a3.49,3.49,0,0,0,0,.35.08.08,0,0,0,.14,0A2.67,2.67,0,0,1,13.64,70a1.24,1.24,0,0,1,1.1.68.09.09,0,0,0,.06,0,.06.06,0,0,0,.06,0,2.92,2.92,0,0,1,1.5-.68c.88,0,1.41.66,1.41,1.77,0,.32,0,.72,0,1.1s0,.64,0,.85a.27.27,0,0,0,.18.22,1.89,1.89,0,0,0,.55.14h0a.74.74,0,0,1-.06.36h-.24l-.72,0c-.59,0-.9,0-1.19,0a.87.87,0,0,1,0-.36l.36-.08c.18-.06.24-.15.25-.4s0-1.72,0-2.09a.93.93,0,0,0-1-.83,1.67,1.67,0,0,0-1,.37.14.14,0,0,0,0,.09h0a4.19,4.19,0,0,1,0,.78v.62c0,.43,0,.83,0,1.14a.29.29,0,0,0,.23.3l.14,0,.3.06a.6.6,0,0,1,0,.27.25.25,0,0,1,0,.09l-1.15,0h-1a.48.48,0,0,1,0-.18.31.31,0,0,1,0-.18l.13,0,.3-.06c.16,0,.22-.14.23-.34a15.88,15.88,0,0,0,0-2.19.89.89,0,0,0-.93-.82,1.73,1.73,0,0,0-1,.37.28.28,0,0,0-.09.21v.57c0,.69,0,1.54,0,1.91a.31.31,0,0,0,.27.3l.22,0,.17,0a.75.75,0,0,1,0,.36h-.34l-.74,0-.76,0h-.34"/><path class="cls-6" d="M21.34,70.4a1,1,0,0,0-.52.15,1.47,1.47,0,0,0-.56,1.35c0,1.25.63,2.12,1.52,2.12a.93.93,0,0,0,.66-.23,1.66,1.66,0,0,0,.42-1.33c0-1.23-.61-2.06-1.52-2.06m.17,4.09a2.09,2.09,0,0,1-2.19-2.3,2,2,0,0,1,.94-1.81A2.94,2.94,0,0,1,21.72,70a2,2,0,0,1,2.1,2.16,2.25,2.25,0,0,1-1,2,2.85,2.85,0,0,1-1.31.4"/><path class="cls-6" d="M37.84,70.4a1,1,0,0,0-.52.15,1.47,1.47,0,0,0-.57,1.35c0,1.25.63,2.12,1.53,2.12a1,1,0,0,0,.66-.23,1.7,1.7,0,0,0,.42-1.33c0-1.23-.61-2.06-1.52-2.06M38,74.49a2.1,2.1,0,0,1-2.2-2.3,2.06,2.06,0,0,1,.95-1.81A2.87,2.87,0,0,1,38.21,70a2,2,0,0,1,2.1,2.16,2.24,2.24,0,0,1-1,2,2.88,2.88,0,0,1-1.31.4"/><path class="cls-6" d="M32.38,70.36c-.5,0-.82.4-.82,1s.28,1.33,1.06,1.33a.78.78,0,0,0,.5-.19,1.26,1.26,0,0,0,.3-.88c0-.79-.39-1.27-1-1.27m-.06,4.21a.9.9,0,0,0-.41.1c-.39.26-.58.51-.58.8a.86.86,0,0,0,.34.69,1.73,1.73,0,0,0,1.14.35c1,0,1.4-.52,1.4-1a.72.72,0,0,0-.55-.73,4.07,4.07,0,0,0-1.34-.17m.06,2.48a2.14,2.14,0,0,1-1.36-.4,1.27,1.27,0,0,1-.5-.94.74.74,0,0,1,.19-.48,4.72,4.72,0,0,1,.88-.71,0,0,0,0,0,0,0,0,0,0,0,0,0,0,.94.94,0,0,1-.62-.61v0a.16.16,0,0,1,.06-.18l.27-.16a3.53,3.53,0,0,0,.43-.29,0,0,0,0,0,0-.06.09.09,0,0,0,0-.05,1.38,1.38,0,0,1-1-1.46,1.46,1.46,0,0,1,.61-1.2A2.83,2.83,0,0,1,32.68,70h0a2.8,2.8,0,0,1,1,.23,1.63,1.63,0,0,0,.61.1A.86.86,0,0,0,35,70a.53.53,0,0,1,0,.19.84.84,0,0,1-.12.44.57.57,0,0,1-.42.18h-.05a.7.7,0,0,1-.25,0l0,0s0,0,0,.07h0a3.39,3.39,0,0,1,.06.41,1.53,1.53,0,0,1-.64,1.38,2.16,2.16,0,0,1-1.11.43h-.27c-.07,0-.26.12-.26.28s.09.32.5.35l.26,0a7.49,7.49,0,0,1,1.54.19A1.07,1.07,0,0,1,35,75a2.07,2.07,0,0,1-1.34,1.77,3,3,0,0,1-1.27.29"/><path class="cls-6" d="M29.9,74a2.38,2.38,0,0,1-.61-.16.31.31,0,0,1-.08-.15c0-.33,0-1.29,0-1.92a2.27,2.27,0,0,0-.3-1.28,1.32,1.32,0,0,0-1.1-.58,2.52,2.52,0,0,0-1.44.69s-.09.07-.09,0,0-.32,0-.45a.23.23,0,0,0-.07-.2,6.42,6.42,0,0,1-1.46.38c-.23.05-.29.27-.05.34h0a2,2,0,0,1,.55.25.28.28,0,0,1,.09.26c0,.72,0,1.82,0,2.41,0,.24-.08.32-.25.37h0a3.53,3.53,0,0,1-.4.08.51.51,0,0,0,0,.42c.1,0,.65,0,1.11,0,.62,0,.95,0,1.11,0A.62.62,0,0,0,27,74a2.39,2.39,0,0,1-.44-.07c-.17,0-.22-.13-.23-.32,0-.5,0-1.56,0-2.29,0-.2,0-.3.12-.35a1.41,1.41,0,0,1,.88-.32,1,1,0,0,1,.66.22.89.89,0,0,1,.3.6c.05.4,0,1.21,0,1.92,0,.38,0,.48-.18.52a1.6,1.6,0,0,1-.44.09.61.61,0,0,0,0,.42c.28,0,.6,0,1.08,0s1,0,1.12,0a.52.52,0,0,0,0-.42"/><path class="cls-6" d="M17.15,62,14.93,55.8H7.17L4.89,62H2L9.77,41.67h2.82L20,62Zm-6-17L8,53.52h6.08Z"/><path class="cls-6" d="M26.09,59.09c0,1,.29,1.36,1,1.36a4.9,4.9,0,0,0,1.44-.32V62a15,15,0,0,1-2.19.23c-2.25,0-2.63-.89-2.63-2.45V50.35H21.53v-1.9h2.19v-4.3h2.37v4.3h2.45v1.9H26.09Z"/><path class="cls-6" d="M32.14,62V41.67h2.19V62Z"/><path class="cls-6" d="M46.91,53.44c0-1.27,0-3.66-3-3.66-1.91,0-2.94.95-2.94,2.65v.2l-2.4-.14c0-.67.41-4.47,5.22-4.47a7.14,7.14,0,0,1,3.41.8c1.93,1.1,2,2.51,2,4.93v4.79c0,.81,0,1.59,1,1.59a2.56,2.56,0,0,0,.69-.12v1.93a4,4,0,0,1-1.47.26A2.89,2.89,0,0,1,48,61.86a2.75,2.75,0,0,1-.92-1.67,6,6,0,0,1-4.65,2.22c-2.71,0-4.61-1.56-4.61-3.9a3.63,3.63,0,0,1,1.47-2.94c1.39-1,3.78-1.41,5.51-1.53l2.08-.14Zm-4.85,2.94a2.37,2.37,0,0,0-1.67,2.08c0,1,.75,2,2.57,2a3.71,3.71,0,0,0,4-4V55.4A29.1,29.1,0,0,0,42.06,56.38Z"/><path class="cls-6" d="M55.58,57.27a3.21,3.21,0,0,0,.75,2.4,3.86,3.86,0,0,0,3.06,1c1.13,0,3.14-.34,3.14-2.27,0-1.65-1.58-1.94-2.82-2.17L58.38,56c-3.72-.72-4.84-2-4.84-4,0-3,2.82-4,5.27-4a5.88,5.88,0,0,1,5.08,2.39,4.89,4.89,0,0,1,.72,2.08l-2.48.28a3.23,3.23,0,0,0-.2-1.26,3.65,3.65,0,0,0-3.43-1.73c-1.88,0-2.69,1.12-2.69,2,0,1.19,1.22,1.65,3.29,2.14l1.33.32c2.54.6,4.53,1.47,4.53,4s-2.45,4.29-5.68,4.29c-4.39,0-5.92-2.16-6.32-4.81Z"/></g></svg>